<?xml version="1.0" encoding="utf-8"?>
<!-- Generator: Adobe Illustrator 16.0.0, SVG Export Plug-In . SVG Version: 6.00 Build 0)  -->
<!DOCTYPE svg PUBLIC "-//W3C//DTD SVG 1.1//EN" "http://www.w3.org/Graphics/SVG/1.1/DTD/svg11.dtd">
<svg version="1.1" id="Layer_1" xmlns="http://www.w3.org/2000/svg" xmlns:xlink="http://www.w3.org/1999/xlink" x="0px" y="0px"
	 width="406.33px" height="384.81px" viewBox="0 0 406.33 384.81" enable-background="new 0 0 406.33 384.81" xml:space="preserve">
<path fill="#6D6E71" d="M372.203,367.281c0,5.629-6.376,10.193-14.24,10.193h-149.52c-7.864,0-14.24-4.564-14.24-10.193V18.167
	c0-5.629,6.376-10.193,14.24-10.193h149.52c7.864,0,14.24,4.564,14.24,10.193V367.281z"/>
<path fill="#F9F1CD" d="M186.203,367.281c0,5.629-6.376,10.193-14.24,10.193H22.443c-7.864,0-14.24-4.564-14.24-10.193V18.167
	c0-5.629,6.376-10.193,14.24-10.193h149.52c7.864,0,14.24,4.564,14.24,10.193V367.281z"/>
<path fill="#FFFFFF" d="M100.203,39.475c0-2.209,1.791-4,4-4h14c2.209,0,4,1.791,4,4v14c0,2.209-1.791,4-4,4h-14
	c-2.209,0-4-1.791-4-4V39.475z"/>
<g>
	<defs>
		<path id="SVGID_1_" d="M182.38,309.168c0,2.762-2.104,5-4.698,5H16.826c-2.595,0-4.698-2.238-4.698-5V66.697
			c0-2.761,2.104-5,4.698-5h160.856c2.595,0,4.698,2.239,4.698,5V309.168z"/>
	</defs>
	<clipPath id="SVGID_2_">
		<use xlink:href="#SVGID_1_"  overflow="visible"/>
	</clipPath>
	<path clip-path="url(#SVGID_2_)" fill="#FF7940" d="M184.709,61.063H13.216c-2.209,0-4,1.791-4,4v15.417c0,2.209,1.791,4,4,4
		h171.493c2.209,0,4-1.791,4-4V65.063C188.709,62.854,186.918,61.063,184.709,61.063"/>
	<path clip-path="url(#SVGID_2_)" fill="#D18658" d="M184.709,84.032H13.216c-2.209,0-4,1.791-4,4v15.418c0,2.209,1.791,4,4,4
		h171.493c2.209,0,4-1.791,4-4V88.032C188.709,85.823,186.918,84.032,184.709,84.032"/>
	<path clip-path="url(#SVGID_2_)" fill="#D18658" d="M184.709,107H13.216c-2.209,0-4,1.791-4,4v15.417c0,2.209,1.791,4,4,4h171.493
		c2.209,0,4-1.791,4-4V111C188.709,108.791,186.918,107,184.709,107"/>
	<path clip-path="url(#SVGID_2_)" fill="#A39371" d="M184.708,129.969H13.216c-2.209,0-4,1.791-4,4v15.417c0,2.209,1.791,4,4,4
		h171.492c2.209,0,4-1.791,4-4v-15.417C188.708,131.76,186.917,129.969,184.708,129.969"/>
	<path clip-path="url(#SVGID_2_)" fill="#A39371" d="M184.709,152.937H13.216c-2.209,0-4,1.791-4,4v15.417c0,2.209,1.791,4,4,4
		h171.493c2.209,0,4-1.791,4-4v-15.417C188.709,154.728,186.918,152.937,184.709,152.937"/>
	<path clip-path="url(#SVGID_2_)" fill="#A39371" d="M184.709,175.905H13.216c-2.209,0-4,1.791-4,4v15.417c0,2.209,1.791,4,4,4
		h171.493c2.209,0,4-1.791,4-4v-15.417C188.709,177.696,186.918,175.905,184.709,175.905"/>
	<path clip-path="url(#SVGID_2_)" fill="#74A089" d="M184.709,198.874H13.216c-2.209,0-4,1.791-4,4v15.417c0,2.209,1.791,4,4,4
		h171.493c2.209,0,4-1.791,4-4v-15.417C188.709,200.665,186.918,198.874,184.709,198.874"/>
	<path clip-path="url(#SVGID_2_)" fill="#74A089" d="M184.709,221.842H13.216c-2.209,0-4,1.791-4,4v15.417c0,2.209,1.791,4,4,4
		h171.493c2.209,0,4-1.791,4-4v-15.417C188.709,223.633,186.918,221.842,184.709,221.842"/>
	<path clip-path="url(#SVGID_2_)" fill="#74A089" d="M184.709,244.811H13.216c-2.209,0-4,1.791-4,4v15.416c0,2.209,1.791,4,4,4
		h171.493c2.209,0,4-1.791,4-4v-15.416C188.709,246.602,186.918,244.811,184.709,244.811"/>
	<path clip-path="url(#SVGID_2_)" fill="#47ADA1" d="M184.709,267.778H13.216c-2.209,0-4,1.791-4,4v15.418c0,2.209,1.791,4,4,4
		h171.493c2.209,0,4-1.791,4-4v-15.418C188.709,269.569,186.918,267.778,184.709,267.778"/>
	<path clip-path="url(#SVGID_2_)" fill="#47ADA1" d="M184.709,290.747H13.216c-2.209,0-4,1.79-4,3.999v15.418c0,2.209,1.791,4,4,4
		h171.493c2.209,0,4-1.791,4-4v-15.418C188.709,292.537,186.918,290.747,184.709,290.747"/>
	<path clip-path="url(#SVGID_2_)" fill="#56A898" d="M184.709,313.715H13.216c-2.209,0-4,1.791-4,4v15.417c0,2.209,1.791,4,4,4
		h171.493c2.209,0,4-1.791,4-4v-15.417C188.709,315.506,186.918,313.715,184.709,313.715"/>
	<path clip-path="url(#SVGID_2_)" fill="#47ADA1" d="M184.709,336.684H13.216c-2.209,0-4,1.791-4,4v15.417c0,2.209,1.791,4,4,4
		h171.493c2.209,0,4-1.791,4-4v-15.417C188.709,338.475,186.918,336.684,184.709,336.684"/>
	
		<line opacity="0.25" clip-path="url(#SVGID_2_)" fill="none" stroke="#FFFFFF" stroke-width="0.25" stroke-miterlimit="10" x1="-118.547" y1="83.975" x2="199.953" y2="83.975"/>
	
		<line opacity="0.25" clip-path="url(#SVGID_2_)" fill="none" stroke="#FFFFFF" stroke-width="0.25" stroke-miterlimit="10" x1="-118.547" y1="106.975" x2="199.953" y2="106.975"/>
	
		<line opacity="0.25" clip-path="url(#SVGID_2_)" fill="none" stroke="#FFFFFF" stroke-width="0.25" stroke-miterlimit="10" x1="-118.547" y1="129.975" x2="199.953" y2="129.975"/>
	
		<line opacity="0.25" clip-path="url(#SVGID_2_)" fill="none" stroke="#FFFFFF" stroke-width="0.25" stroke-miterlimit="10" x1="-118.547" y1="152.975" x2="199.953" y2="152.975"/>
	
		<line opacity="0.25" clip-path="url(#SVGID_2_)" fill="none" stroke="#FFFFFF" stroke-width="0.25" stroke-miterlimit="10" x1="-118.547" y1="175.975" x2="199.953" y2="175.975"/>
	
		<line opacity="0.25" clip-path="url(#SVGID_2_)" fill="none" stroke="#FFFFFF" stroke-width="0.25" stroke-miterlimit="10" x1="-118.547" y1="198.975" x2="199.953" y2="198.975"/>
	
		<line opacity="0.25" clip-path="url(#SVGID_2_)" fill="none" stroke="#FFFFFF" stroke-width="0.25" stroke-miterlimit="10" x1="-118.547" y1="221.975" x2="199.953" y2="221.975"/>
	
		<line opacity="0.25" clip-path="url(#SVGID_2_)" fill="none" stroke="#FFFFFF" stroke-width="0.25" stroke-miterlimit="10" x1="-118.547" y1="244.975" x2="199.953" y2="244.975"/>
	
		<line opacity="0.25" clip-path="url(#SVGID_2_)" fill="none" stroke="#FFFFFF" stroke-width="0.25" stroke-miterlimit="10" x1="-118.547" y1="267.975" x2="199.953" y2="267.975"/>
	
		<line opacity="0.25" clip-path="url(#SVGID_2_)" fill="none" stroke="#FFFFFF" stroke-width="0.25" stroke-miterlimit="10" x1="-118.547" y1="290.975" x2="199.953" y2="290.975"/>
</g>
<circle fill="#BCBEC0" cx="296.953" cy="46.225" r="11.25"/>
<rect x="19.088" y="68.292" fill="none" width="111.394" height="344.937"/>
<text transform="matrix(1 0 0 1 19.0884 75.7217)"><tspan x="0" y="0" fill="#FFFFFF" font-family="'Lato-Bold'" font-size="10">Yogurt</tspan><tspan x="0" y="23" fill="#FFFFFF" font-family="'Lato-Bold'" font-size="10">Bread</tspan><tspan x="0" y="46" fill="#FFFFFF" font-family="'Lato-Bold'" font-size="10">Celery</tspan><tspan x="0" y="69" fill="#FFFFFF" font-family="'Lato-Bold'" font-size="10">Cheese</tspan><tspan x="0" y="92" fill="#FFFFFF" font-family="'Lato-Bold'" font-size="10">Milk</tspan><tspan x="0" y="115" fill="#FFFFFF" font-family="'Lato-Bold'" font-size="10">Soup</tspan><tspan x="0" y="138" fill="#FFFFFF" font-family="'Lato-Bold'" font-size="10">Black Beans</tspan><tspan x="0" y="161" fill="#FFFFFF" font-family="'Lato-Bold'" font-size="10">Squash</tspan><tspan x="0" y="184" fill="#FFFFFF" font-family="'Lato-Bold'" font-size="10">Kale</tspan><tspan x="0" y="206.999" fill="#FFFFFF" font-family="'Lato-Bold'" font-size="10">Spinach</tspan><tspan x="0" y="229.999" fill="#FFFFFF" font-family="'Lato-Bold'" font-size="10">Oatmeal</tspan></text>
<rect x="65.291" y="68.557" fill="none" width="111.394" height="344.937"/>
<text transform="matrix(1 0 0 1 144.6147 75.9873)"><tspan x="0" y="0" fill="#FFFFFF" font-family="'Lato-Bold'" font-size="10">12 </tspan><tspan x="13.529" y="0" opacity="0.5" fill="#FFFFFF" font-family="'Lato-Bold'" font-size="7">days</tspan><tspan x="0" y="23" fill="#FFFFFF" font-family="'Lato-Bold'" font-size="10">11 </tspan><tspan x="13.529" y="23" opacity="0.5" fill="#FFFFFF" font-family="'Lato-Bold'" font-size="7">days</tspan><tspan x="0" y="46" fill="#FFFFFF" font-family="'Lato-Bold'" font-size="10">11 </tspan><tspan x="13.529" y="46" opacity="0.5" fill="#FFFFFF" font-family="'Lato-Bold'" font-size="7">days</tspan><tspan x="5.8" y="69" fill="#FFFFFF" font-family="'Lato-Bold'" font-size="10">9 </tspan><tspan x="13.529" y="69" opacity="0.5" fill="#FFFFFF" font-family="'Lato-Bold'" font-size="7">days</tspan><tspan x="5.8" y="92" fill="#FFFFFF" font-family="'Lato-Bold'" font-size="10">9 </tspan><tspan x="13.529" y="92" opacity="0.5" fill="#FFFFFF" font-family="'Lato-Bold'" font-size="7">days</tspan><tspan x="5.8" y="115" fill="#FFFFFF" font-family="'Lato-Bold'" font-size="10">9 </tspan><tspan x="13.529" y="115" opacity="0.5" fill="#FFFFFF" font-family="'Lato-Bold'" font-size="7">days</tspan><tspan x="5.8" y="138" fill="#FFFFFF" font-family="'Lato-Bold'" font-size="10">8 </tspan><tspan x="13.529" y="138" opacity="0.5" fill="#FFFFFF" font-family="'Lato-Bold'" font-size="7">days</tspan><tspan x="5.8" y="161" fill="#FFFFFF" font-family="'Lato-Bold'" font-size="10">8 </tspan><tspan x="13.529" y="161" opacity="0.5" fill="#FFFFFF" font-family="'Lato-Bold'" font-size="7">days</tspan><tspan x="5.8" y="184" fill="#FFFFFF" font-family="'Lato-Bold'" font-size="10">8 </tspan><tspan x="13.529" y="184" opacity="0.5" fill="#FFFFFF" font-family="'Lato-Bold'" font-size="7">days</tspan><tspan x="5.8" y="206.999" fill="#FFFFFF" font-family="'Lato-Bold'" font-size="10">1 </tspan><tspan x="13.529" y="206.999" opacity="0.5" fill="#FFFFFF" font-family="'Lato-Bold'" font-size="7">days</tspan><tspan x="5.8" y="229.999" fill="#FFFFFF" font-family="'Lato-Bold'" font-size="10">1 </tspan><tspan x="13.529" y="229.999" opacity="0.5" fill="#FFFFFF" font-family="'Lato-Bold'" font-size="7">days</tspan></text>
<path fill="none" stroke="#58595B" stroke-width="6" stroke-linecap="round" stroke-linejoin="round" stroke-miterlimit="10" d="
	M167.695,41.205"/>
<g>
	<path fill="none" stroke="#47ADA1" stroke-linecap="round" stroke-linejoin="round" stroke-miterlimit="10" d="M116.755,51.9
		c0,0.353-0.287,0.639-0.639,0.639h-9.494c-0.354,0-0.639-0.286-0.639-0.639V40.172c0-0.353,0.285-0.639,0.639-0.639h9.494
		c0.352,0,0.639,0.286,0.639,0.639V51.9z"/>
	<path fill="none" stroke="#47ADA1" stroke-linecap="round" stroke-linejoin="round" stroke-miterlimit="10" d="M111.371,39.613"/>
	
		<line fill="none" stroke="#47ADA1" stroke-linecap="round" stroke-linejoin="round" stroke-miterlimit="10" x1="111.53" y1="52.539" x2="111.53" y2="39.693"/>
	
		<line fill="none" stroke="#47ADA1" stroke-linecap="round" stroke-linejoin="round" stroke-miterlimit="10" x1="110.013" y1="49.188" x2="110.013" y2="42.645"/>
	
		<line fill="none" stroke="#47ADA1" stroke-linecap="round" stroke-linejoin="round" stroke-miterlimit="10" x1="112.965" y1="49.188" x2="112.965" y2="42.645"/>
	
		<line fill="none" stroke="#47ADA1" stroke-linecap="round" stroke-linejoin="round" stroke-miterlimit="10" x1="106.834" y1="53.975" x2="115.691" y2="53.975"/>
	
		<line fill="none" stroke="#47ADA1" stroke-linecap="round" stroke-linejoin="round" stroke-miterlimit="10" x1="108.47" y1="44.48" x2="107.632" y2="44.48"/>
	
		<line fill="none" stroke="#47ADA1" stroke-linecap="round" stroke-linejoin="round" stroke-miterlimit="10" x1="108.47" y1="46.076" x2="107.632" y2="46.076"/>
	
		<line fill="none" stroke="#47ADA1" stroke-linecap="round" stroke-linejoin="round" stroke-miterlimit="10" x1="114.095" y1="41.049" x2="115.293" y2="41.049"/>
</g>
<g>
	<circle fill="none" stroke="#A39371" stroke-miterlimit="10" cx="86.077" cy="52.219" r="1.197"/>
	<circle fill="none" stroke="#A39371" stroke-miterlimit="10" cx="79.694" cy="52.219" r="1.197"/>
	
		<line fill="none" stroke="#A39371" stroke-linecap="round" stroke-linejoin="round" stroke-miterlimit="10" x1="80.931" y1="52.299" x2="84.362" y2="52.299"/>
	<polyline fill="none" stroke="#A39371" stroke-linecap="round" stroke-linejoin="round" stroke-miterlimit="10" points="
		86.515,50.624 88.99,42.326 91.224,41.049 	"/>
	<polyline fill="none" stroke="#A39371" stroke-linecap="round" stroke-linejoin="round" stroke-miterlimit="10" points="
		86.915,48.948 78.09,48.3 77.367,43.766 87.173,43.522 	"/>
	
		<line fill="none" stroke="#A39371" stroke-linecap="round" stroke-linejoin="round" stroke-miterlimit="10" x1="78.138" y1="50.463" x2="78.856" y2="51.342"/>
	
		<line fill="none" stroke="#A39371" stroke-linecap="round" stroke-linejoin="round" stroke-miterlimit="10" x1="80.389" y1="43.921" x2="80.687" y2="46.954"/>
	
		<line fill="none" stroke="#A39371" stroke-linecap="round" stroke-linejoin="round" stroke-miterlimit="10" x1="85.559" y1="43.921" x2="85.24" y2="47.113"/>
	
		<line fill="none" stroke="#A39371" stroke-linecap="round" stroke-linejoin="round" stroke-miterlimit="10" x1="79.362" y1="45.836" x2="86.261" y2="45.836"/>
	<polyline fill="none" stroke="#A39371" stroke-linecap="round" stroke-linejoin="round" stroke-miterlimit="10" points="
		78.57,43.601 78.393,42.109 81.617,41.609 81.952,43.419 	"/>
	<path fill="none" stroke="#A39371" stroke-linecap="round" stroke-linejoin="round" stroke-miterlimit="10" d="M83.803,43.084
		c0-0.595,0.481-1.077,1.077-1.077c0.595,0,1.077,0.482,1.077,1.077"/>
	
		<line fill="none" stroke="#A39371" stroke-linecap="round" stroke-linejoin="round" stroke-miterlimit="10" x1="82.931" y1="43.842" x2="83.005" y2="46.954"/>
</g>
<g>
	<defs>
		<path id="SVGID_3_" d="M368.38,309.168c0,2.762-2.104,5-4.698,5H202.826c-2.595,0-4.698-2.238-4.698-5V66.697
			c0-2.761,2.104-5,4.698-5h160.856c2.595,0,4.698,2.239,4.698,5V309.168z"/>
	</defs>
	<clipPath id="SVGID_4_">
		<use xlink:href="#SVGID_3_"  overflow="visible"/>
	</clipPath>
	<path clip-path="url(#SVGID_4_)" fill="#FF7940" d="M370.709,61.063H199.216c-2.209,0-4,1.791-4,4v15.417c0,2.209,1.791,4,4,4
		h171.493c2.209,0,4-1.791,4-4V65.063C374.709,62.854,372.918,61.063,370.709,61.063"/>
	<path clip-path="url(#SVGID_4_)" fill="#D18658" d="M370.709,84.032H199.216c-2.209,0-4,1.791-4,4v15.418c0,2.209,1.791,4,4,4
		h171.493c2.209,0,4-1.791,4-4V88.032C374.709,85.823,372.918,84.032,370.709,84.032"/>
	<path clip-path="url(#SVGID_4_)" fill="#D18658" d="M370.709,107H199.216c-2.209,0-4,1.791-4,4v15.417c0,2.209,1.791,4,4,4h171.493
		c2.209,0,4-1.791,4-4V111C374.709,108.791,372.918,107,370.709,107"/>
	<path clip-path="url(#SVGID_4_)" fill="#A39371" d="M370.708,129.969H199.216c-2.209,0-4,1.791-4,4v15.417c0,2.209,1.791,4,4,4
		h171.492c2.209,0,4-1.791,4-4v-15.417C374.708,131.76,372.917,129.969,370.708,129.969"/>
	<path clip-path="url(#SVGID_4_)" fill="#A39371" d="M370.709,152.937H199.216c-2.209,0-4,1.791-4,4v15.417c0,2.209,1.791,4,4,4
		h171.493c2.209,0,4-1.791,4-4v-15.417C374.709,154.728,372.918,152.937,370.709,152.937"/>
	<path clip-path="url(#SVGID_4_)" fill="#A39371" d="M370.709,175.905H199.216c-2.209,0-4,1.791-4,4v15.417c0,2.209,1.791,4,4,4
		h171.493c2.209,0,4-1.791,4-4v-15.417C374.709,177.696,372.918,175.905,370.709,175.905"/>
	<path clip-path="url(#SVGID_4_)" fill="#74A089" d="M370.709,198.874H199.216c-2.209,0-4,1.791-4,4v15.417c0,2.209,1.791,4,4,4
		h171.493c2.209,0,4-1.791,4-4v-15.417C374.709,200.665,372.918,198.874,370.709,198.874"/>
	<path clip-path="url(#SVGID_4_)" fill="#74A089" d="M370.709,221.842H199.216c-2.209,0-4,1.791-4,4v15.417c0,2.209,1.791,4,4,4
		h171.493c2.209,0,4-1.791,4-4v-15.417C374.709,223.633,372.918,221.842,370.709,221.842"/>
	<path clip-path="url(#SVGID_4_)" fill="#74A089" d="M370.709,244.811H199.216c-2.209,0-4,1.791-4,4v15.416c0,2.209,1.791,4,4,4
		h171.493c2.209,0,4-1.791,4-4v-15.416C374.709,246.602,372.918,244.811,370.709,244.811"/>
	<path clip-path="url(#SVGID_4_)" fill="#47ADA1" d="M370.709,267.778H199.216c-2.209,0-4,1.791-4,4v15.418c0,2.209,1.791,4,4,4
		h171.493c2.209,0,4-1.791,4-4v-15.418C374.709,269.569,372.918,267.778,370.709,267.778"/>
	<path clip-path="url(#SVGID_4_)" fill="#47ADA1" d="M370.709,290.747H199.216c-2.209,0-4,1.79-4,3.999v15.418c0,2.209,1.791,4,4,4
		h171.493c2.209,0,4-1.791,4-4v-15.418C374.709,292.537,372.918,290.747,370.709,290.747"/>
	<path clip-path="url(#SVGID_4_)" fill="#56A898" d="M370.709,313.715H199.216c-2.209,0-4,1.791-4,4v15.417c0,2.209,1.791,4,4,4
		h171.493c2.209,0,4-1.791,4-4v-15.417C374.709,315.506,372.918,313.715,370.709,313.715"/>
	<path clip-path="url(#SVGID_4_)" fill="#47ADA1" d="M370.709,336.684H199.216c-2.209,0-4,1.791-4,4v15.417c0,2.209,1.791,4,4,4
		h171.493c2.209,0,4-1.791,4-4v-15.417C374.709,338.475,372.918,336.684,370.709,336.684"/>
	
		<line opacity="0.25" clip-path="url(#SVGID_4_)" fill="none" stroke="#FFFFFF" stroke-width="0.25" stroke-miterlimit="10" x1="67.453" y1="83.975" x2="385.953" y2="83.975"/>
	
		<line opacity="0.25" clip-path="url(#SVGID_4_)" fill="none" stroke="#FFFFFF" stroke-width="0.25" stroke-miterlimit="10" x1="67.453" y1="106.975" x2="385.953" y2="106.975"/>
	
		<line opacity="0.25" clip-path="url(#SVGID_4_)" fill="none" stroke="#FFFFFF" stroke-width="0.25" stroke-miterlimit="10" x1="67.453" y1="129.975" x2="385.953" y2="129.975"/>
	
		<line opacity="0.25" clip-path="url(#SVGID_4_)" fill="none" stroke="#FFFFFF" stroke-width="0.25" stroke-miterlimit="10" x1="67.453" y1="152.975" x2="385.953" y2="152.975"/>
	
		<line opacity="0.25" clip-path="url(#SVGID_4_)" fill="none" stroke="#FFFFFF" stroke-width="0.25" stroke-miterlimit="10" x1="67.453" y1="175.975" x2="385.953" y2="175.975"/>
	
		<line opacity="0.25" clip-path="url(#SVGID_4_)" fill="none" stroke="#FFFFFF" stroke-width="0.25" stroke-miterlimit="10" x1="67.453" y1="198.975" x2="385.953" y2="198.975"/>
	
		<line opacity="0.25" clip-path="url(#SVGID_4_)" fill="none" stroke="#FFFFFF" stroke-width="0.25" stroke-miterlimit="10" x1="67.453" y1="221.975" x2="385.953" y2="221.975"/>
	
		<line opacity="0.25" clip-path="url(#SVGID_4_)" fill="none" stroke="#FFFFFF" stroke-width="0.25" stroke-miterlimit="10" x1="67.453" y1="244.975" x2="385.953" y2="244.975"/>
	
		<line opacity="0.25" clip-path="url(#SVGID_4_)" fill="none" stroke="#FFFFFF" stroke-width="0.25" stroke-miterlimit="10" x1="67.453" y1="267.975" x2="385.953" y2="267.975"/>
	
		<line opacity="0.25" clip-path="url(#SVGID_4_)" fill="none" stroke="#FFFFFF" stroke-width="0.25" stroke-miterlimit="10" x1="67.453" y1="290.975" x2="385.953" y2="290.975"/>
</g>
<rect x="205.088" y="68.292" fill="none" width="111.394" height="344.937"/>
<text transform="matrix(1 0 0 1 205.0884 75.7217)"><tspan x="0" y="0" fill="#FFFFFF" font-family="'Lato-Bold'" font-size="10">Yogurt</tspan><tspan x="0" y="23" fill="#FFFFFF" font-family="'Lato-Bold'" font-size="10">Bread</tspan><tspan x="0" y="46" fill="#FFFFFF" font-family="'Lato-Bold'" font-size="10">Celery</tspan><tspan x="0" y="69" fill="#FFFFFF" font-family="'Lato-Bold'" font-size="10">Cheese</tspan><tspan x="0" y="92" fill="#FFFFFF" font-family="'Lato-Bold'" font-size="10">Milk</tspan><tspan x="0" y="115" fill="#FFFFFF" font-family="'Lato-Bold'" font-size="10">Soup</tspan><tspan x="0" y="138" fill="#FFFFFF" font-family="'Lato-Bold'" font-size="10">Black Beans</tspan><tspan x="0" y="161" fill="#FFFFFF" font-family="'Lato-Bold'" font-size="10">Squash</tspan><tspan x="0" y="184" fill="#FFFFFF" font-family="'Lato-Bold'" font-size="10">Kale</tspan><tspan x="0" y="206.999" fill="#FFFFFF" font-family="'Lato-Bold'" font-size="10">Spinach</tspan><tspan x="0" y="229.999" fill="#FFFFFF" font-family="'Lato-Bold'" font-size="10">Oatmeal</tspan></text>
<rect x="251.291" y="68.557" fill="none" width="111.394" height="344.937"/>
<text transform="matrix(1 0 0 1 330.6147 75.9873)"><tspan x="0" y="0" fill="#FFFFFF" font-family="'Lato-Bold'" font-size="10">12 </tspan><tspan x="13.529" y="0" opacity="0.5" fill="#FFFFFF" font-family="'Lato-Bold'" font-size="7">days</tspan><tspan x="0" y="23" fill="#FFFFFF" font-family="'Lato-Bold'" font-size="10">11 </tspan><tspan x="13.529" y="23" opacity="0.5" fill="#FFFFFF" font-family="'Lato-Bold'" font-size="7">days</tspan><tspan x="0" y="46" fill="#FFFFFF" font-family="'Lato-Bold'" font-size="10">11 </tspan><tspan x="13.529" y="46" opacity="0.5" fill="#FFFFFF" font-family="'Lato-Bold'" font-size="7">days</tspan><tspan x="5.8" y="69" fill="#FFFFFF" font-family="'Lato-Bold'" font-size="10">9 </tspan><tspan x="13.529" y="69" opacity="0.5" fill="#FFFFFF" font-family="'Lato-Bold'" font-size="7">days</tspan><tspan x="5.8" y="92" fill="#FFFFFF" font-family="'Lato-Bold'" font-size="10">9 </tspan><tspan x="13.529" y="92" opacity="0.5" fill="#FFFFFF" font-family="'Lato-Bold'" font-size="7">days</tspan><tspan x="5.8" y="115" fill="#FFFFFF" font-family="'Lato-Bold'" font-size="10">9 </tspan><tspan x="13.529" y="115" opacity="0.5" fill="#FFFFFF" font-family="'Lato-Bold'" font-size="7">days</tspan><tspan x="5.8" y="138" fill="#FFFFFF" font-family="'Lato-Bold'" font-size="10">8 </tspan><tspan x="13.529" y="138" opacity="0.5" fill="#FFFFFF" font-family="'Lato-Bold'" font-size="7">days</tspan><tspan x="5.8" y="161" fill="#FFFFFF" font-family="'Lato-Bold'" font-size="10">8 </tspan><tspan x="13.529" y="161" opacity="0.5" fill="#FFFFFF" font-family="'Lato-Bold'" font-size="7">days</tspan><tspan x="5.8" y="184" fill="#FFFFFF" font-family="'Lato-Bold'" font-size="10">8 </tspan><tspan x="13.529" y="184" opacity="0.5" fill="#FFFFFF" font-family="'Lato-Bold'" font-size="7">days</tspan><tspan x="5.8" y="206.999" fill="#FFFFFF" font-family="'Lato-Bold'" font-size="10">1 </tspan><tspan x="13.529" y="206.999" opacity="0.5" fill="#FFFFFF" font-family="'Lato-Bold'" font-size="7">days</tspan><tspan x="5.8" y="229.999" fill="#FFFFFF" font-family="'Lato-Bold'" font-size="10">1 </tspan><tspan x="13.529" y="229.999" opacity="0.5" fill="#FFFFFF" font-family="'Lato-Bold'" font-size="7">days</tspan></text>
<path fill="none" stroke="#58595B" stroke-width="6" stroke-linecap="round" stroke-linejoin="round" stroke-miterlimit="10" d="
	M353.695,41.205"/>
<g>
	<path fill="none" stroke="#6D6E71" stroke-linecap="round" stroke-linejoin="round" stroke-miterlimit="10" d="M302.755,51.9
		c0,0.353-0.287,0.639-0.639,0.639h-9.494c-0.354,0-0.639-0.286-0.639-0.639V40.172c0-0.353,0.285-0.639,0.639-0.639h9.494
		c0.352,0,0.639,0.286,0.639,0.639V51.9z"/>
	<path fill="none" stroke="#6D6E71" stroke-linecap="round" stroke-linejoin="round" stroke-miterlimit="10" d="M297.371,39.613"/>
	
		<line fill="none" stroke="#6D6E71" stroke-linecap="round" stroke-linejoin="round" stroke-miterlimit="10" x1="297.53" y1="52.539" x2="297.53" y2="39.693"/>
	
		<line fill="none" stroke="#6D6E71" stroke-linecap="round" stroke-linejoin="round" stroke-miterlimit="10" x1="296.013" y1="49.188" x2="296.013" y2="42.645"/>
	
		<line fill="none" stroke="#6D6E71" stroke-linecap="round" stroke-linejoin="round" stroke-miterlimit="10" x1="298.965" y1="49.188" x2="298.965" y2="42.645"/>
	
		<line fill="none" stroke="#6D6E71" stroke-linecap="round" stroke-linejoin="round" stroke-miterlimit="10" x1="292.834" y1="53.975" x2="301.691" y2="53.975"/>
	
		<line fill="none" stroke="#6D6E71" stroke-linecap="round" stroke-linejoin="round" stroke-miterlimit="10" x1="294.47" y1="44.48" x2="293.632" y2="44.48"/>
	
		<line fill="none" stroke="#6D6E71" stroke-linecap="round" stroke-linejoin="round" stroke-miterlimit="10" x1="294.47" y1="46.076" x2="293.632" y2="46.076"/>
	
		<line fill="none" stroke="#6D6E71" stroke-linecap="round" stroke-linejoin="round" stroke-miterlimit="10" x1="300.095" y1="41.049" x2="301.293" y2="41.049"/>
</g>
<g opacity="0.5">
	<circle fill="none" stroke="#BCBEC0" stroke-miterlimit="10" cx="272.077" cy="52.219" r="1.197"/>
	<circle fill="none" stroke="#BCBEC0" stroke-miterlimit="10" cx="265.694" cy="52.219" r="1.197"/>
	
		<line fill="none" stroke="#BCBEC0" stroke-linecap="round" stroke-linejoin="round" stroke-miterlimit="10" x1="266.931" y1="52.299" x2="270.362" y2="52.299"/>
	<polyline fill="none" stroke="#BCBEC0" stroke-linecap="round" stroke-linejoin="round" stroke-miterlimit="10" points="
		272.515,50.624 274.99,42.326 277.224,41.049 	"/>
	<polyline fill="none" stroke="#BCBEC0" stroke-linecap="round" stroke-linejoin="round" stroke-miterlimit="10" points="
		272.915,48.948 264.09,48.3 263.367,43.766 273.173,43.522 	"/>
	
		<line fill="none" stroke="#BCBEC0" stroke-linecap="round" stroke-linejoin="round" stroke-miterlimit="10" x1="264.138" y1="50.463" x2="264.856" y2="51.342"/>
	
		<line fill="none" stroke="#BCBEC0" stroke-linecap="round" stroke-linejoin="round" stroke-miterlimit="10" x1="266.389" y1="43.921" x2="266.687" y2="46.954"/>
	
		<line fill="none" stroke="#BCBEC0" stroke-linecap="round" stroke-linejoin="round" stroke-miterlimit="10" x1="271.559" y1="43.921" x2="271.24" y2="47.113"/>
	
		<line fill="none" stroke="#BCBEC0" stroke-linecap="round" stroke-linejoin="round" stroke-miterlimit="10" x1="265.362" y1="45.836" x2="272.261" y2="45.836"/>
	<polyline fill="none" stroke="#BCBEC0" stroke-linecap="round" stroke-linejoin="round" stroke-miterlimit="10" points="
		264.57,43.601 264.393,42.109 267.617,41.609 267.952,43.419 	"/>
	<path fill="none" stroke="#BCBEC0" stroke-linecap="round" stroke-linejoin="round" stroke-miterlimit="10" d="M269.803,43.084
		c0-0.595,0.481-1.077,1.077-1.077c0.595,0,1.077,0.482,1.077,1.077"/>
	
		<line fill="none" stroke="#BCBEC0" stroke-linecap="round" stroke-linejoin="round" stroke-miterlimit="10" x1="268.931" y1="43.842" x2="269.005" y2="46.954"/>
</g>
<g>
	<circle fill="#FF7940" cx="390.427" cy="50.633" r="6.25"/>
	<circle fill="#F27D47" cx="390.427" cy="70.562" r="6.25"/>
	<circle fill="#E5804E" cx="390.427" cy="90.489" r="6.25"/>
	<circle fill="#D88455" cx="390.427" cy="110.418" r="6.25"/>
	<circle fill="#CA885C" cx="390.427" cy="130.348" r="6.25"/>
	<circle fill="#BD8C63" cx="390.427" cy="150.276" r="6.25"/>
	<circle fill="#B08F6A" cx="390.427" cy="170.204" r="6.25"/>
	<circle fill="#A39371" cx="390.427" cy="190.133" r="6.25"/>
	<circle fill="#969777" cx="390.427" cy="210.062" r="6.25"/>
	<circle fill="#899A7E" cx="390.427" cy="229.99" r="6.25"/>
	<circle fill="#7C9E85" cx="390.427" cy="249.918" r="6.25"/>
	<circle fill="#6EA28C" cx="390.427" cy="269.847" r="6.25"/>
	<circle fill="#61A693" cx="390.427" cy="289.775" r="6.25"/>
	<circle fill="#54A99A" cx="390.427" cy="309.704" r="6.25"/>
	<circle fill="#47ADA1" cx="390.427" cy="329.633" r="6.25"/>
</g>
</svg>
